# Alias OBJ Model File
# Exported from SketchUp, (c) 2000-2012 Trimble Navigation Limited
# File units = meters

mtllib roofTop1.mtl

g Mesh1 Group1 Model

usemtl Roofing_Shingles_GAF_Estates
v 15 0 -0
vt 0 -33.4848
vn -0.371391 -0.928477 -0
v 7.5 3 -7.5
vt -13.4216 -14.0636
v 15 0 -15
vt -26.8432 -33.4848
f 1/1/1 2/2/1 3/3/1

vt -26.8432 -5.23942e-16
vn -5.81122e-18 -0.928477 -0.371391
v 0 0 -0
vt -1.24405e-49 0
vt -13.4216 19.4212
f 1/4/2 4/5/2 2/6/2

vt 13.4216 19.4212
vn 0.371391 -0.928477 -0
vt 0 1.20437e-32
v 0 0 -15
vt 26.8432 1.20437e-32
f 2/7/3 4/8/3 5/9/3

vt 26.8432 -33.4848
vn 1.93707e-18 -0.928477 0.371391
vt 13.4216 -14.0636
vt 1.40007e-16 -33.4848
f 3/10/4 2/11/4 5/12/4

