# Alias OBJ Model File
# Exported from SketchUp, (c) 2000-2012 Trimble Navigation Limited
# File units = meters

mtllib BrickHouse.WinWall.mtl

g Mesh1 Difference Model

usemtl Brick_Antique_01
v 7.5 -1.75 -0.05
vt 3.93701 0
vn 1 0 -0
v 7.5 1.75 0.05
vt 0 137.795
v 7.5 -1.75 0.05
vt 0 0
f 1/1/1 2/2/1 3/3/1

v 7.5 1.75 -0.05
vt 3.93701 137.795
f 2/2/1 1/1/1 4/4/1

vt -590.551 0
vn 0 0 -1
v 4.51177 0 -0.05
vt -472.905 68.8976
vt -590.551 137.795
f 1/5/2 5/6/2 4/7/2

v -4.5 0 -0.05
vt -118.11 68.8976
f 5/6/2 1/5/2 6/8/2

v -7.5 -1.75 -0.05
f 7/3/2 6/8/2 1/5/2

v -7.5 1.75 -0.05
f 6/8/2 7/3/2 8/2/2

v -7.5 -1.75 0.05
vn -1 0 -0
vt -3.93701 137.795
vt -3.93701 0
f 9/3/3 8/9/3 7/10/3

v -7.5 1.75 0.05
f 8/9/3 9/3/3 10/2/3

vn 0 0 1
v -4.5 0 0.05
vt 118.11 68.8976
f 9/3/4 11/11/4 10/2/4

v 4.51177 0 0.05
vt 472.905 68.8976
f 11/11/4 9/3/4 12/12/4

vt 590.551 0
f 3/13/4 12/12/4 9/3/4

vt 590.551 137.795
f 12/12/4 3/13/4 2/14/4

v 4.51177 1 0.05
vt 472.905 108.268
f 12/12/4 2/14/4 13/15/4

v 3.01177 1 0.05
vt 413.849 108.268
f 13/15/4 2/14/4 14/16/4

v -3 1 0.05
vt 177.165 108.268
f 14/16/4 2/14/4 15/17/4

v -4.5 1 0.05
vt 118.11 108.268
f 15/17/4 2/14/4 16/18/4

f 10/2/4 16/18/4 2/14/4

f 10/2/4 11/11/4 16/18/4

vt 3.93701 68.8976
vt 0 108.268
vt 0 68.8976
f 6/19/1 16/20/1 11/21/1

v -4.5 1 -0.05
vt 3.93701 108.268
f 16/20/1 6/19/1 17/22/1

vt -118.11 108.268
f 6/8/2 8/2/2 17/23/2

v -3 1 -0.05
vt -177.165 108.268
f 17/23/2 8/2/2 18/24/2

v 3.01177 1 -0.05
vt -413.849 108.268
f 18/24/2 8/2/2 19/25/2

v 4.51177 1 -0.05
vt -472.905 108.268
f 19/25/2 8/2/2 20/26/2

f 4/7/2 20/26/2 8/2/2

f 4/7/2 5/6/2 20/26/2

vt -3.93701 108.268
vt -3.93701 68.8976
f 12/21/3 20/27/3 5/28/3

f 20/27/3 12/21/3 13/20/3

vt -413.849 0
vn 0 -1 -0
vt -472.905 3.93701
vt -472.905 0
f 14/29/5 20/30/5 13/31/5

vt -413.849 3.93701
f 20/30/5 14/29/5 19/32/5

v 3.01177 0 -0.05
f 14/20/1 21/19/1 19/22/1

v 3.01177 0 0.05
f 21/19/1 14/20/1 22/21/1

v -3 0 0.05
vt 177.165 68.8976
vt 413.849 68.8976
f 14/16/4 23/33/4 22/34/4

f 23/33/4 14/16/4 15/17/4

f 18/27/3 23/21/3 15/20/3

v -3 0 -0.05
f 23/21/3 18/27/3 24/28/3

vt -413.849 68.8976
vt -177.165 68.8976
f 18/24/2 21/35/2 24/36/2

f 21/35/2 18/24/2 19/25/2

f 5/6/2 24/36/2 21/35/2

f 5/6/2 6/8/2 24/36/2

vt 118.11 3.93701
vn 0 1 -0
vt 177.165 0
vt 177.165 3.93701
f 6/37/6 23/38/6 24/39/6

vt 118.11 0
f 23/38/6 6/37/6 11/40/6

f 11/11/4 22/34/4 23/33/4

f 11/11/4 12/12/4 22/34/4

vt 472.905 0
vt 413.849 3.93701
vt 413.849 0
f 12/41/6 21/42/6 22/43/6

vt 472.905 3.93701
f 21/42/6 12/41/6 5/44/6

vt -118.11 0
vt -177.165 3.93701
vt -177.165 0
f 16/45/5 18/46/5 15/47/5

vt -118.11 3.93701
f 18/46/5 16/45/5 17/48/5

vt 0 3.93701
vt 590.551 3.93701
f 8/49/6 2/13/6 4/50/6

f 2/13/6 8/49/6 10/3/6

vt -590.551 3.93701
f 9/3/5 1/51/5 3/5/5

f 1/51/5 9/3/5 7/49/5
